# xmcd
#
# Track frame offsets: 
#        150
#        13579
#        26366
#        39292
#        49281
#        61663
#        69554
#        81286
#        93323
#        102804
#        115306
#        126000
#        137172
#        149181
#        160015
#        171346
#        183784
#        196035
#        208261
#        219978
#        232881
#        247351
#        260550
#        271233
#        283050
#        293455
#        307333
#        316344
#        326285
#        338278
#
# Disc length: 4685 seconds
#
# Revision: 1
# Processed by: cddbd v1.5.2PL0 Copyright (c) Steve Scherf et al.
# Submitted via: ExactAudioCopy v1.3
#
DISCID=b3124b1e
DTITLE=Lester Flatt - Flatt and Mac Wiseman, 1973 - Flatt on Victor Plus 
DTITLE=More_CD5
DYEAR=1999
DGENRE=Bluegrass
TTITLE0=Lester Flatt, 1973 - Have You Come to Say Goodbye
TTITLE1=Lester Flatt, 1973 - Her Sweet Love's Callin' Me
TTITLE2=Lester Flatt, 1973 - My Little Girl's Little Girl
TTITLE3=Lester Flatt, 1973 - Nashville Grass Breakdown
TTITLE4=Lester Flatt, 1973 - Don't Get Above Your Raisin'
TTITLE5=Lester Flatt, 1973 - Feudin' Banjos
TTITLE6=Lester Flatt, 1973 - The Country Boy
TTITLE7=Lester Flatt, 1973 - I'm Gonna Get My Picture Took
TTITLE8=Lester Flatt, 1973 - I Like to Have Papa Show Me Around
TTITLE9=Lester Flatt, 1973 - My Arms Will Make You Forget
TTITLE10=Lester Flatt, 1973 - No Place to Pillow My Head
TTITLE11=Lester Flatt, 1973 - The Haskel Stomp
TTITLE12=Lester Flatt, 1973 - One Bad Case of the Blues
TTITLE13=Lester Flatt, 1973 - Love's Come Over Me
TTITLE14=Lester Flatt and Mac Wiseman, 1973 - The Girl I Love Don't Pay 
TTITLE14=Me No Mind
TTITLE15=Lester Flatt and Mac Wiseman, 1973 - I'll Go Stepping Too
TTITLE16=Lester Flatt and Mac Wiseman, 1973 - Ain't Nobody Gonna Miss Me
TTITLE16=When I'm Gone
TTITLE17=Lester Flatt and Mac Wiseman, 1973 - I'm a Stranger in This Wor
TTITLE17=ld
TTITLE18=Lester Flatt and Mac Wiseman, 1973 - More Pretty Girls Than One
TTITLE19=Lester Flatt and Mac Wiseman, 1973 - When My Blue Moon Turns to
TTITLE19=Gold Again
TTITLE20=Lester Flatt and Mac Wiseman, 1973 - Over the Hills to the Poor
TTITLE20=house
TTITLE21=Lester Flatt and Mac Wiseman, 1973 - 'Tis Sweet to Be Remembere
TTITLE21=d
TTITLE22=Lester Flatt, 1973 - This Man Jesus
TTITLE23=Lester Flatt, 1973 - Crazy Life
TTITLE24=Lester Flatt, 1973 - She Left Me Because I Drink
TTITLE25=Lester Flatt, 1973 - I've Been Away So Long
TTITLE26=Lester Flatt, 1973 - McCormick String Picnic
TTITLE27=Lester Flatt, 1973 - Never Ending Song of Love
TTITLE28=Lester Flatt, 1973 - Before You Go
TTITLE29=Lester Flatt, 1973 - Country Living
EXTD=
EXTT0=
EXTT1=
EXTT2=
EXTT3=
EXTT4=
EXTT5=
EXTT6=
EXTT7=
EXTT8=
EXTT9=
EXTT10=
EXTT11=
EXTT12=
EXTT13=
EXTT14=
EXTT15=
EXTT16=
EXTT17=
EXTT18=
EXTT19=
EXTT20=
EXTT21=
EXTT22=
EXTT23=
EXTT24=
EXTT25=
EXTT26=
EXTT27=
EXTT28=
EXTT29=
PLAYORDER=
